<?xml version="1.0" encoding="UTF-8" standalone="no"?><svg xmlns:xlink="http://www.w3.org/1999/xlink" version="1.1" class="highcharts-root" style="font-family:&quot;Lucida Grande&quot;, &quot;Lucida Sans Unicode&quot;, Arial, Helvetica, sans-serif;font-size:12px;" xmlns="http://www.w3.org/2000/svg" width="600" height="400" viewBox="0 0 600 400"><desc>Created with Highcharts 6.1.1</desc><defs><clipPath id="highcharts-eglndab-5"><rect x="0" y="0" width="509" height="312" fill="none"></rect></clipPath></defs><rect fill="#ffffff" class="highcharts-background" x="0" y="0" width="600" height="400" rx="0" ry="0"></rect><rect fill="none" class="highcharts-plot-background" x="81" y="10" width="509" height="312"></rect><g class="highcharts-grid highcharts-xaxis-grid " data-z-index="1"><path fill="none" data-z-index="1" class="highcharts-grid-line" d="M 122.5 10 L 122.5 322" opacity="1"></path><path fill="none" data-z-index="1" class="highcharts-grid-line" d="M 165.5 10 L 165.5 322" opacity="1"></path><path fill="none" data-z-index="1" class="highcharts-grid-line" d="M 207.5 10 L 207.5 322" opacity="1"></path><path fill="none" data-z-index="1" class="highcharts-grid-line" d="M 250.5 10 L 250.5 322" opacity="1"></path><path fill="none" data-z-index="1" class="highcharts-grid-line" d="M 292.5 10 L 292.5 322" opacity="1"></path><path fill="none" data-z-index="1" class="highcharts-grid-line" d="M 335.5 10 L 335.5 322" opacity="1"></path><path fill="none" data-z-index="1" class="highcharts-grid-line" d="M 377.5 10 L 377.5 322" opacity="1"></path><path fill="none" data-z-index="1" class="highcharts-grid-line" d="M 419.5 10 L 419.5 322" opacity="1"></path><path fill="none" data-z-index="1" class="highcharts-grid-line" d="M 462.5 10 L 462.5 322" opacity="1"></path><path fill="none" data-z-index="1" class="highcharts-grid-line" d="M 504.5 10 L 504.5 322" opacity="1"></path><path fill="none" data-z-index="1" class="highcharts-grid-line" d="M 547.5 10 L 547.5 322" opacity="1"></path><path fill="none" data-z-index="1" class="highcharts-grid-line" d="M 589.5 10 L 589.5 322" opacity="1"></path><path fill="none" data-z-index="1" class="highcharts-grid-line" d="M 80.5 10 L 80.5 322" opacity="1"></path></g><g class="highcharts-grid highcharts-yaxis-grid " data-z-index="1"><path fill="none" stroke="#e6e6e6" stroke-width="1" data-z-index="1" class="highcharts-grid-line" d="M 81 322.5 L 590 322.5" opacity="1"></path><path fill="none" stroke="#e6e6e6" stroke-width="1" data-z-index="1" class="highcharts-grid-line" d="M 81 291.5 L 590 291.5" opacity="1"></path><path fill="none" stroke="#e6e6e6" stroke-width="1" data-z-index="1" class="highcharts-grid-line" d="M 81 260.5 L 590 260.5" opacity="1"></path><path fill="none" stroke="#e6e6e6" stroke-width="1" data-z-index="1" class="highcharts-grid-line" d="M 81 228.5 L 590 228.5" opacity="1"></path><path fill="none" stroke="#e6e6e6" stroke-width="1" data-z-index="1" class="highcharts-grid-line" d="M 81 197.5 L 590 197.5" opacity="1"></path><path fill="none" stroke="#e6e6e6" stroke-width="1" data-z-index="1" class="highcharts-grid-line" d="M 81 166.5 L 590 166.5" opacity="1"></path><path fill="none" stroke="#e6e6e6" stroke-width="1" data-z-index="1" class="highcharts-grid-line" d="M 81 135.5 L 590 135.5" opacity="1"></path><path fill="none" stroke="#e6e6e6" stroke-width="1" data-z-index="1" class="highcharts-grid-line" d="M 81 104.5 L 590 104.5" opacity="1"></path><path fill="none" stroke="#e6e6e6" stroke-width="1" data-z-index="1" class="highcharts-grid-line" d="M 81 72.5 L 590 72.5" opacity="1"></path><path fill="none" stroke="#e6e6e6" stroke-width="1" data-z-index="1" class="highcharts-grid-line" d="M 81 41.5 L 590 41.5" opacity="1"></path><path fill="none" stroke="#e6e6e6" stroke-width="1" data-z-index="1" class="highcharts-grid-line" d="M 81 9.5 L 590 9.5" opacity="1"></path></g><rect fill="none" class="highcharts-plot-border" data-z-index="1" x="81" y="10" width="509" height="312"></rect><g class="highcharts-axis highcharts-xaxis " data-z-index="2"><path fill="none" class="highcharts-tick" stroke="#ccd6eb" stroke-width="1" d="M 122.5 322 L 122.5 332" opacity="1"></path><path fill="none" class="highcharts-tick" stroke="#ccd6eb" stroke-width="1" d="M 165.5 322 L 165.5 332" opacity="1"></path><path fill="none" class="highcharts-tick" stroke="#ccd6eb" stroke-width="1" d="M 207.5 322 L 207.5 332" opacity="1"></path><path fill="none" class="highcharts-tick" stroke="#ccd6eb" stroke-width="1" d="M 250.5 322 L 250.5 332" opacity="1"></path><path fill="none" class="highcharts-tick" stroke="#ccd6eb" stroke-width="1" d="M 292.5 322 L 292.5 332" opacity="1"></path><path fill="none" class="highcharts-tick" stroke="#ccd6eb" stroke-width="1" d="M 335.5 322 L 335.5 332" opacity="1"></path><path fill="none" class="highcharts-tick" stroke="#ccd6eb" stroke-width="1" d="M 377.5 322 L 377.5 332" opacity="1"></path><path fill="none" class="highcharts-tick" stroke="#ccd6eb" stroke-width="1" d="M 419.5 322 L 419.5 332" opacity="1"></path><path fill="none" class="highcharts-tick" stroke="#ccd6eb" stroke-width="1" d="M 462.5 322 L 462.5 332" opacity="1"></path><path fill="none" class="highcharts-tick" stroke="#ccd6eb" stroke-width="1" d="M 504.5 322 L 504.5 332" opacity="1"></path><path fill="none" class="highcharts-tick" stroke="#ccd6eb" stroke-width="1" d="M 547.5 322 L 547.5 332" opacity="1"></path><path fill="none" class="highcharts-tick" stroke="#ccd6eb" stroke-width="1" d="M 590.5 322 L 590.5 332" opacity="1"></path><path fill="none" class="highcharts-tick" stroke="#ccd6eb" stroke-width="1" d="M 80.5 322 L 80.5 332" opacity="1"></path><path fill="none" class="highcharts-axis-line" stroke="#ccd6eb" stroke-width="1" data-z-index="7" d="M 81 322.5 L 590 322.5"></path></g><g class="highcharts-axis highcharts-yaxis " data-z-index="2"><text x="26.125" data-z-index="7" text-anchor="middle" transform="translate(0,0) rotate(270 26.125 166)" class="highcharts-axis-title" style="color:#666666;fill:#666666;" y="166"><tspan>kWh</tspan></text><path fill="none" class="highcharts-axis-line" data-z-index="7" d="M 81 10 L 81 322"></path></g><g class="highcharts-series-group" data-z-index="3"><g data-z-index="0.1" class="highcharts-series highcharts-series-0 highcharts-column-series highcharts-color-0 " transform="translate(81,10) scale(1 1)" clip-path="url(#highcharts-eglndab-5)"><rect x="8" y="51" width="13" height="262" fill="#c0504d" class="highcharts-point highcharts-color-0"></rect><rect x="51" y="76" width="13" height="237" fill="#c0504d" class="highcharts-point highcharts-color-0"></rect><rect x="93" y="101" width="13" height="212" fill="#c0504d" class="highcharts-point highcharts-color-0"></rect><rect x="136" y="145" width="12" height="168" fill="#c0504d" class="highcharts-point highcharts-color-0"></rect><rect x="178" y="207" width="13" height="106" fill="#c0504d" class="highcharts-point highcharts-color-0"></rect><rect x="221" y="244" width="12" height="69" fill="#c0504d" class="highcharts-point highcharts-color-0"></rect><rect x="263" y="257" width="13" height="56" fill="#c0504d" class="highcharts-point highcharts-color-0"></rect><rect x="305" y="251" width="13" height="62" fill="#c0504d" class="highcharts-point highcharts-color-0"></rect><rect x="348" y="219" width="13" height="94" fill="#c0504d" class="highcharts-point highcharts-color-0"></rect><rect x="390" y="163" width="13" height="150" fill="#c0504d" class="highcharts-point highcharts-color-0"></rect><rect x="433" y="95" width="12" height="218" fill="#c0504d" class="highcharts-point highcharts-color-0"></rect><rect x="475" y="76" width="13" height="237" fill="#c0504d" class="highcharts-point highcharts-color-0"></rect></g><g data-z-index="0.1" class="highcharts-markers highcharts-series-0 highcharts-column-series highcharts-color-0 " transform="translate(81,10) scale(1 1)" clip-path="none"></g><g data-z-index="0.1" class="highcharts-series highcharts-series-1 highcharts-column-series highcharts-color-1 " transform="translate(81,10) scale(1 1)" clip-path="url(#highcharts-eglndab-5)"><rect x="21" y="279" width="13" height="34" fill="#4f81bd" class="highcharts-point highcharts-color-1"></rect><rect x="64" y="256" width="12" height="57" fill="#4f81bd" class="highcharts-point highcharts-color-1"></rect><rect x="106" y="99" width="13" height="214" fill="#4f81bd" class="highcharts-point highcharts-color-1"></rect><rect x="148" y="64" width="13" height="249" fill="#4f81bd" class="highcharts-point highcharts-color-1"></rect><rect x="191" y="39" width="13" height="274" fill="#4f81bd" class="highcharts-point highcharts-color-1"></rect><rect x="233" y="47" width="13" height="266" fill="#4f81bd" class="highcharts-point highcharts-color-1"></rect><rect x="276" y="56" width="12" height="257" fill="#4f81bd" class="highcharts-point highcharts-color-1"></rect><rect x="318" y="73" width="13" height="240" fill="#4f81bd" class="highcharts-point highcharts-color-1"></rect><rect x="361" y="116" width="12" height="197" fill="#4f81bd" class="highcharts-point highcharts-color-1"></rect><rect x="403" y="193" width="13" height="120" fill="#4f81bd" class="highcharts-point highcharts-color-1"></rect><rect x="445" y="262" width="13" height="51" fill="#4f81bd" class="highcharts-point highcharts-color-1"></rect><rect x="488" y="279" width="13" height="34" fill="#4f81bd" class="highcharts-point highcharts-color-1"></rect></g><g data-z-index="0.1" class="highcharts-markers highcharts-series-1 highcharts-column-series highcharts-color-1 " transform="translate(81,10) scale(1 1)" clip-path="none"></g></g><text x="300" text-anchor="middle" class="highcharts-title" data-z-index="4" style="color:#333333;font-size:18px;fill:#333333;" y="24"></text><text x="300" text-anchor="middle" class="highcharts-subtitle" data-z-index="4" style="color:#666666;fill:#666666;" y="24"></text><g class="highcharts-legend" data-z-index="7" transform="translate(48,356)"><rect fill="none" class="highcharts-legend-box" rx="0" ry="0" x="0" y="0" width="503" height="29" visibility="visible"></rect><g data-z-index="1"><g><g class="highcharts-legend-item highcharts-column-series highcharts-color-0 highcharts-series-0" data-z-index="1" transform="translate(8,3)"><text x="21" style="color:#333333;font-size:12px;font-weight:bold;cursor:pointer;fill:#333333;" text-anchor="start" data-z-index="2" y="15"><tspan>Uppskattad förbrukning av fastighetsel</tspan></text><rect x="2" y="4" width="12" height="12" fill="#c0504d" rx="6" ry="6" class="highcharts-point" data-z-index="3"></rect></g><g class="highcharts-legend-item highcharts-column-series highcharts-color-1 highcharts-series-1" data-z-index="1" transform="translate(285.21875,3)"><text x="21" y="15" style="color:#333333;font-size:12px;font-weight:bold;cursor:pointer;fill:#333333;" text-anchor="start" data-z-index="2"><tspan>Uppskattad produktion av solel</tspan></text><rect x="2" y="4" width="12" height="12" fill="#4f81bd" rx="6" ry="6" class="highcharts-point" data-z-index="3"></rect></g></g></g></g><g class="highcharts-axis-labels highcharts-xaxis-labels " data-z-index="7"><text x="102.20833333333667" style="color:#666666;cursor:default;font-size:11px;fill:#666666;" text-anchor="middle" transform="translate(0,0)" y="341" opacity="1">Jan</text><text x="144.62499999999665" style="color:#666666;cursor:default;font-size:11px;fill:#666666;" text-anchor="middle" transform="translate(0,0)" y="341" opacity="1">Feb</text><text x="187.04166666666666" style="color:#666666;cursor:default;font-size:11px;fill:#666666;" text-anchor="middle" transform="translate(0,0)" y="341" opacity="1">Mar</text><text x="229.45833333333667" style="color:#666666;cursor:default;font-size:11px;fill:#666666;" text-anchor="middle" transform="translate(0,0)" y="341" opacity="1">Apr</text><text x="271.8749999999967" style="color:#666666;cursor:default;font-size:11px;fill:#666666;" text-anchor="middle" transform="translate(0,0)" y="341" opacity="1">May</text><text x="314.2916666666667" style="color:#666666;cursor:default;font-size:11px;fill:#666666;" text-anchor="middle" transform="translate(0,0)" y="341" opacity="1">Jun</text><text x="356.70833333333667" style="color:#666666;cursor:default;font-size:11px;fill:#666666;" text-anchor="middle" transform="translate(0,0)" y="341" opacity="1">Jul</text><text x="399.1249999999967" style="color:#666666;cursor:default;font-size:11px;fill:#666666;" text-anchor="middle" transform="translate(0,0)" y="341" opacity="1">Aug</text><text x="441.5416666666667" style="color:#666666;cursor:default;font-size:11px;fill:#666666;" text-anchor="middle" transform="translate(0,0)" y="341" opacity="1">Sep</text><text x="483.95833333333667" style="color:#666666;cursor:default;font-size:11px;fill:#666666;" text-anchor="middle" transform="translate(0,0)" y="341" opacity="1">Oct</text><text x="526.3749999999966" style="color:#666666;cursor:default;font-size:11px;fill:#666666;" text-anchor="middle" transform="translate(0,0)" y="341" opacity="1">Nov</text><text x="568.7916666666666" style="color:#666666;cursor:default;font-size:11px;fill:#666666;" text-anchor="middle" transform="translate(0,0)" y="341" opacity="1">Dec</text></g><g class="highcharts-axis-labels highcharts-yaxis-labels " data-z-index="7"><text x="66" style="color:#666666;cursor:default;font-size:11px;fill:#666666;" text-anchor="end" transform="translate(0,0)" y="326" opacity="1">0</text><text x="66" style="color:#666666;cursor:default;font-size:11px;fill:#666666;" text-anchor="end" transform="translate(0,0)" y="295" opacity="1">200</text><text x="66" style="color:#666666;cursor:default;font-size:11px;fill:#666666;" text-anchor="end" transform="translate(0,0)" y="264" opacity="1">400</text><text x="66" style="color:#666666;cursor:default;font-size:11px;fill:#666666;" text-anchor="end" transform="translate(0,0)" y="232" opacity="1">600</text><text x="66" style="color:#666666;cursor:default;font-size:11px;fill:#666666;" text-anchor="end" transform="translate(0,0)" y="201" opacity="1">800</text><text x="66" style="color:#666666;cursor:default;font-size:11px;fill:#666666;" text-anchor="end" transform="translate(0,0)" y="170" opacity="1">1000</text><text x="66" style="color:#666666;cursor:default;font-size:11px;fill:#666666;" text-anchor="end" transform="translate(0,0)" y="139" opacity="1">1200</text><text x="66" style="color:#666666;cursor:default;font-size:11px;fill:#666666;" text-anchor="end" transform="translate(0,0)" y="108" opacity="1">1400</text><text x="66" style="color:#666666;cursor:default;font-size:11px;fill:#666666;" text-anchor="end" transform="translate(0,0)" y="76" opacity="1">1600</text><text x="66" style="color:#666666;cursor:default;font-size:11px;fill:#666666;" text-anchor="end" transform="translate(0,0)" y="45" opacity="1">1800</text><text x="66" style="color:#666666;cursor:default;font-size:11px;fill:#666666;" text-anchor="end" transform="translate(0,0)" y="14" opacity="1">2000</text></g><text x="590" class="highcharts-credits" text-anchor="end" data-z-index="8" style="cursor:pointer;color:#999999;font-size:9px;fill:#999999;" y="395">Highcharts.com</text></svg>