<?xml version="1.0" encoding="UTF-8"?>
<!DOCTYPE svg PUBLIC "-//W3C//DTD SVG 1.1//EN" "http://www.w3.org/Graphics/SVG/1.1/DTD/svg11.dtd">
<!-- Creator: CorelDRAW X7 -->
<svg xmlns="http://www.w3.org/2000/svg" xml:space="preserve" width="0.166661in" height="0.166661in" version="1.1" style="shape-rendering:geometricPrecision; text-rendering:geometricPrecision; image-rendering:optimizeQuality; fill-rule:evenodd; clip-rule:evenodd"
viewBox="0 0 167 167"
 xmlns:xlink="http://www.w3.org/1999/xlink">
 <defs>
  <style type="text/css">
   <![CDATA[
    .fil3 {fill:none}
    .fil0 {fill:#0091CF}
    .fil2 {fill:white}
    .fil1 {fill:black;fill-opacity:0.200000}
   ]]>
  </style>
   <clipPath id="id0">
    <path d="M167 151c0,9 -7,16 -16,16l-135 0c-9,0 -16,-7 -16,-16l0 -135c0,-9 7,-16 16,-16l135 0c9,0 16,7 16,16l0 135z"/>
   </clipPath>
 </defs>
 <g id="Layer_x0020_1">
  <metadata id="CorelCorpID_0Corel-Layer"/>
  <path class="fil0" d="M167 151c0,9 -7,16 -16,16l-135 0c-9,0 -16,-7 -16,-16l0 -135c0,-9 7,-16 16,-16l135 0c9,0 16,7 16,16l0 135z"/>
  <g style="clip-path:url(#id0)">
   <g id="_295894832">
    <path id="1" class="fil1" d="M199 177l0 -44 -104 -104 -15 46 -52 19 105 105 44 0c12,0 22,-9 22,-22z"/>
    <g>
     <path class="fil2" d="M71 32c0,-3 3,-6 6,-6l12 0c4,0 6,3 6,6l0 103c0,3 -2,6 -6,6l-12 0c-3,0 -6,-3 -6,-6l0 -103z"/>
     <path class="fil2" d="M135 71c3,0 6,3 6,6l0 12c0,4 -3,6 -6,6l-103 0c-3,0 -6,-2 -6,-6l0 -12c0,-3 3,-6 6,-6l103 0z"/>
    </g>
   </g>
  </g>
  <path class="fil3" d="M167 151c0,9 -7,16 -16,16l-135 0c-9,0 -16,-7 -16,-16l0 -135c0,-9 7,-16 16,-16l135 0c9,0 16,7 16,16l0 135z"/>
 </g>
</svg>
