<?xml version="1.0" encoding="UTF-8"?>
<!DOCTYPE svg PUBLIC "-//W3C//DTD SVG 1.1//EN" "http://www.w3.org/Graphics/SVG/1.1/DTD/svg11.dtd">
<!-- Creator: CorelDRAW X7 -->
<svg xmlns="http://www.w3.org/2000/svg" xml:space="preserve" width="3.18028in" height="0.870425in" version="1.1" shape-rendering="geometricPrecision" text-rendering="geometricPrecision" image-rendering="optimizeQuality" fill-rule="evenodd" clip-rule="evenodd"
viewBox="0 0 3180 870"
 xmlns:xlink="http://www.w3.org/1999/xlink">
 <g id="Layer_x0020_1">
  <metadata id="CorelCorpID_0Corel-Layer"/>
  <g id="_766186248">
   <path fill="#22914F" fill-rule="nonzero" d="M89 581c-40,-133 298,-250 513,-260 -21,63 -50,136 -79,205 -24,2 -112,13 -185,55 -98,58 103,168 132,168 28,0 237,-509 229,-569 -8,-51 -531,129 -692,185 -5,25 -7,50 -7,76 0,209 146,384 341,429 -117,-78 -230,-215 -252,-289z"/>
   <path fill="#22914F" fill-rule="nonzero" d="M627 41c-57,-26 -120,-41 -186,-41 -163,0 -305,88 -381,219 99,-38 343,-128 567,-178z"/>
   <path fill="#22914F" fill-rule="nonzero" d="M848 272c-38,184 -150,427 -239,577 160,-66 273,-224 273,-408 0,-60 -12,-117 -34,-169z"/>
   <path fill="black" fill-rule="nonzero" d="M1862 408c30,-101 110,-145 211,-122l-21 138c-238,-73 -179,168 -185,313l-49 0c-51,0 -92,-41 -92,-91l0 -351 139 0 -3 113z"/>
   <path fill="black" fill-rule="nonzero" d="M2257 38l0 0 0 453 179 -196 169 0 -195 196 214 246 -173 0 -194 -234 0 234 -140 0 0 -559c0,-77 63,-140 140,-140z"/>
   <path fill="black" fill-rule="nonzero" d="M3052 515c0,-39 -11,-71 -32,-94 -22,-23 -52,-35 -89,-35 -38,0 -68,12 -90,35 -21,23 -32,54 -32,94 0,40 10,71 32,94 21,22 51,33 89,33 39,0 69,-11 90,-33 22,-23 32,-54 32,-94zm128 222l-136 0 2 -63c-19,28 -41,48 -68,61 -27,13 -60,20 -98,20 -64,0 -115,-22 -155,-66 -39,-43 -58,-101 -58,-172 0,-75 19,-133 57,-175 39,-41 92,-62 161,-62 36,0 67,7 94,22 27,15 50,37 68,66l0 -73 133 0 0 442z"/>
   <path fill="black" fill-rule="nonzero" d="M1448 522l-87 -218 -85 218 172 0zm-405 216l236 -568 53 0c66,0 125,39 151,100l197 468 -151 0 -50 -121 -241 0 -51 121 -144 0z"/>
  </g>
 </g>
</svg>
