<?xml version="1.0" encoding="UTF-8"?>
<!DOCTYPE svg PUBLIC "-//W3C//DTD SVG 1.1//EN" "http://www.w3.org/Graphics/SVG/1.1/DTD/svg11.dtd">
<!-- Creator: CorelDRAW X7 -->
<svg xmlns="http://www.w3.org/2000/svg" xml:space="preserve" width="0.05in" height="0.0426063in" version="1.1" shape-rendering="geometricPrecision" text-rendering="geometricPrecision" image-rendering="optimizeQuality" fill-rule="evenodd" clip-rule="evenodd"
viewBox="0 0 50 43"
 xmlns:xlink="http://www.w3.org/1999/xlink">
 <g id="Layer_x0020_1">
  <metadata id="CorelCorpID_0Corel-Layer"/>
  <path fill="black" d="M0 23l7 0 0 20 13 0 0 -15 10 0 0 15 13 0 0 -20 7 0c0,-1 -5,-5 -6,-6 -1,-1 -4,-3 -5,-4l-4 -4c0,0 0,0 -1,-1 0,0 0,0 0,0l-2 -2c0,0 0,0 -1,0l-4 -4c0,0 0,0 0,-1 -1,0 -1,-1 -2,-1l-7 6c0,1 0,1 -1,1l-15 13c0,1 -2,2 -2,3z"/>
 </g>
</svg>
