<?xml version="1.0" encoding="UTF-8" standalone="no"?><svg xmlns:xlink="http://www.w3.org/1999/xlink" version="1.1" class="highcharts-root" style="font-family:&quot;Lucida Grande&quot;, &quot;Lucida Sans Unicode&quot;, Arial, Helvetica, sans-serif;font-size:12px;" xmlns="http://www.w3.org/2000/svg" width="600" height="400" viewBox="0 0 600 400"><desc>Created with Highcharts 6.1.1</desc><defs><clipPath id="highcharts-xzu0v7n-5"><rect x="0" y="0" width="537" height="269" fill="none"></rect></clipPath></defs><rect fill="#ffffff" class="highcharts-background" x="0" y="0" width="600" height="400" rx="0" ry="0"></rect><rect fill="none" class="highcharts-plot-background" x="53" y="53" width="537" height="269"></rect><g class="highcharts-grid highcharts-xaxis-grid " data-z-index="1"><path fill="none" data-z-index="1" class="highcharts-grid-line" d="M 97.5 53 L 97.5 322" opacity="1"></path><path fill="none" data-z-index="1" class="highcharts-grid-line" d="M 142.5 53 L 142.5 322" opacity="1"></path><path fill="none" data-z-index="1" class="highcharts-grid-line" d="M 186.5 53 L 186.5 322" opacity="1"></path><path fill="none" data-z-index="1" class="highcharts-grid-line" d="M 231.5 53 L 231.5 322" opacity="1"></path><path fill="none" data-z-index="1" class="highcharts-grid-line" d="M 276.5 53 L 276.5 322" opacity="1"></path><path fill="none" data-z-index="1" class="highcharts-grid-line" d="M 321.5 53 L 321.5 322" opacity="1"></path><path fill="none" data-z-index="1" class="highcharts-grid-line" d="M 365.5 53 L 365.5 322" opacity="1"></path><path fill="none" data-z-index="1" class="highcharts-grid-line" d="M 410.5 53 L 410.5 322" opacity="1"></path><path fill="none" data-z-index="1" class="highcharts-grid-line" d="M 455.5 53 L 455.5 322" opacity="1"></path><path fill="none" data-z-index="1" class="highcharts-grid-line" d="M 500.5 53 L 500.5 322" opacity="1"></path><path fill="none" data-z-index="1" class="highcharts-grid-line" d="M 544.5 53 L 544.5 322" opacity="1"></path><path fill="none" data-z-index="1" class="highcharts-grid-line" d="M 589.5 53 L 589.5 322" opacity="1"></path><path fill="none" data-z-index="1" class="highcharts-grid-line" d="M 52.5 53 L 52.5 322" opacity="1"></path></g><g class="highcharts-grid highcharts-yaxis-grid " data-z-index="1"><path fill="none" stroke="#e6e6e6" stroke-width="1" data-z-index="1" class="highcharts-grid-line" d="M 53 322.5 L 590 322.5" opacity="1"></path><path fill="none" stroke="#e6e6e6" stroke-width="1" data-z-index="1" class="highcharts-grid-line" d="M 53 295.5 L 590 295.5" opacity="1"></path><path fill="none" stroke="#e6e6e6" stroke-width="1" data-z-index="1" class="highcharts-grid-line" d="M 53 268.5 L 590 268.5" opacity="1"></path><path fill="none" stroke="#e6e6e6" stroke-width="1" data-z-index="1" class="highcharts-grid-line" d="M 53 241.5 L 590 241.5" opacity="1"></path><path fill="none" stroke="#e6e6e6" stroke-width="1" data-z-index="1" class="highcharts-grid-line" d="M 53 214.5 L 590 214.5" opacity="1"></path><path fill="none" stroke="#e6e6e6" stroke-width="1" data-z-index="1" class="highcharts-grid-line" d="M 53 188.5 L 590 188.5" opacity="1"></path><path fill="none" stroke="#e6e6e6" stroke-width="1" data-z-index="1" class="highcharts-grid-line" d="M 53 161.5 L 590 161.5" opacity="1"></path><path fill="none" stroke="#e6e6e6" stroke-width="1" data-z-index="1" class="highcharts-grid-line" d="M 53 134.5 L 590 134.5" opacity="1"></path><path fill="none" stroke="#e6e6e6" stroke-width="1" data-z-index="1" class="highcharts-grid-line" d="M 53 107.5 L 590 107.5" opacity="1"></path><path fill="none" stroke="#e6e6e6" stroke-width="1" data-z-index="1" class="highcharts-grid-line" d="M 53 80.5 L 590 80.5" opacity="1"></path><path fill="none" stroke="#e6e6e6" stroke-width="1" data-z-index="1" class="highcharts-grid-line" d="M 53 52.5 L 590 52.5" opacity="1"></path></g><rect fill="none" class="highcharts-plot-border" data-z-index="1" x="53" y="53" width="537" height="269"></rect><g class="highcharts-axis highcharts-xaxis " data-z-index="2"><path fill="none" class="highcharts-tick" stroke="#ccd6eb" stroke-width="1" d="M 97.5 322 L 97.5 332" opacity="1"></path><path fill="none" class="highcharts-tick" stroke="#ccd6eb" stroke-width="1" d="M 142.5 322 L 142.5 332" opacity="1"></path><path fill="none" class="highcharts-tick" stroke="#ccd6eb" stroke-width="1" d="M 186.5 322 L 186.5 332" opacity="1"></path><path fill="none" class="highcharts-tick" stroke="#ccd6eb" stroke-width="1" d="M 231.5 322 L 231.5 332" opacity="1"></path><path fill="none" class="highcharts-tick" stroke="#ccd6eb" stroke-width="1" d="M 276.5 322 L 276.5 332" opacity="1"></path><path fill="none" class="highcharts-tick" stroke="#ccd6eb" stroke-width="1" d="M 321.5 322 L 321.5 332" opacity="1"></path><path fill="none" class="highcharts-tick" stroke="#ccd6eb" stroke-width="1" d="M 365.5 322 L 365.5 332" opacity="1"></path><path fill="none" class="highcharts-tick" stroke="#ccd6eb" stroke-width="1" d="M 410.5 322 L 410.5 332" opacity="1"></path><path fill="none" class="highcharts-tick" stroke="#ccd6eb" stroke-width="1" d="M 455.5 322 L 455.5 332" opacity="1"></path><path fill="none" class="highcharts-tick" stroke="#ccd6eb" stroke-width="1" d="M 500.5 322 L 500.5 332" opacity="1"></path><path fill="none" class="highcharts-tick" stroke="#ccd6eb" stroke-width="1" d="M 544.5 322 L 544.5 332" opacity="1"></path><path fill="none" class="highcharts-tick" stroke="#ccd6eb" stroke-width="1" d="M 590.5 322 L 590.5 332" opacity="1"></path><path fill="none" class="highcharts-tick" stroke="#ccd6eb" stroke-width="1" d="M 52.5 322 L 52.5 332" opacity="1"></path><path fill="none" class="highcharts-axis-line" stroke="#ccd6eb" stroke-width="1" data-z-index="7" d="M 53 322.5 L 590 322.5"></path></g><g class="highcharts-axis highcharts-yaxis " data-z-index="2"><path fill="none" class="highcharts-axis-line" data-z-index="7" d="M 53 53 L 53 322"></path></g><g class="highcharts-series-group" data-z-index="3"><g data-z-index="0.1" class="highcharts-series highcharts-series-0 highcharts-column-series highcharts-color-0 " transform="translate(53,53) scale(1 1)" clip-path="url(#highcharts-xzu0v7n-5)"><rect x="9" y="44" width="13" height="226" fill="#c0504d" class="highcharts-point highcharts-color-0"></rect><rect x="54" y="66" width="13" height="204" fill="#c0504d" class="highcharts-point highcharts-color-0"></rect><rect x="98" y="87" width="14" height="183" fill="#c0504d" class="highcharts-point highcharts-color-0"></rect><rect x="143" y="125" width="14" height="145" fill="#c0504d" class="highcharts-point highcharts-color-0"></rect><rect x="188" y="179" width="13" height="91" fill="#c0504d" class="highcharts-point highcharts-color-0"></rect><rect x="233" y="211" width="13" height="59" fill="#c0504d" class="highcharts-point highcharts-color-0"></rect><rect x="277" y="222" width="14" height="48" fill="#c0504d" class="highcharts-point highcharts-color-0"></rect><rect x="322" y="216" width="14" height="54" fill="#c0504d" class="highcharts-point highcharts-color-0"></rect><rect x="367" y="189" width="13" height="81" fill="#c0504d" class="highcharts-point highcharts-color-0"></rect><rect x="412" y="141" width="13" height="129" fill="#c0504d" class="highcharts-point highcharts-color-0"></rect><rect x="456" y="82" width="14" height="188" fill="#c0504d" class="highcharts-point highcharts-color-0"></rect><rect x="501" y="66" width="14" height="204" fill="#c0504d" class="highcharts-point highcharts-color-0"></rect></g><g data-z-index="0.1" class="highcharts-markers highcharts-series-0 highcharts-column-series highcharts-color-0 " transform="translate(53,53) scale(1 1)" clip-path="none"></g><g data-z-index="0.1" class="highcharts-series highcharts-series-1 highcharts-column-series highcharts-color-1 " transform="translate(53,53) scale(1 1)" clip-path="url(#highcharts-xzu0v7n-5)"><rect x="22" y="241" width="14" height="29" fill="#4f81bd" class="highcharts-point highcharts-color-1"></rect><rect x="67" y="221" width="14" height="49" fill="#4f81bd" class="highcharts-point highcharts-color-1"></rect><rect x="112" y="85" width="13" height="185" fill="#4f81bd" class="highcharts-point highcharts-color-1"></rect><rect x="157" y="56" width="13" height="214" fill="#4f81bd" class="highcharts-point highcharts-color-1"></rect><rect x="201" y="34" width="14" height="236" fill="#4f81bd" class="highcharts-point highcharts-color-1"></rect><rect x="246" y="41" width="14" height="229" fill="#4f81bd" class="highcharts-point highcharts-color-1"></rect><rect x="291" y="48" width="13" height="222" fill="#4f81bd" class="highcharts-point highcharts-color-1"></rect><rect x="336" y="63" width="13" height="207" fill="#4f81bd" class="highcharts-point highcharts-color-1"></rect><rect x="380" y="100" width="14" height="170" fill="#4f81bd" class="highcharts-point highcharts-color-1"></rect><rect x="425" y="167" width="14" height="103" fill="#4f81bd" class="highcharts-point highcharts-color-1"></rect><rect x="470" y="226" width="13" height="44" fill="#4f81bd" class="highcharts-point highcharts-color-1"></rect><rect x="515" y="240" width="13" height="30" fill="#4f81bd" class="highcharts-point highcharts-color-1"></rect></g><g data-z-index="0.1" class="highcharts-markers highcharts-series-1 highcharts-column-series highcharts-color-1 " transform="translate(53,53) scale(1 1)" clip-path="none"></g></g><text x="300" text-anchor="middle" class="highcharts-title" data-z-index="4" style="color:#333333;font-size:18px;fill:#333333;" y="24"><tspan>UPPSKATTAD PRODUKTIONSBERÄKNING</tspan></text><text x="300" text-anchor="middle" class="highcharts-subtitle" data-z-index="4" style="color:#666666;fill:#666666;" y="52"></text><g class="highcharts-legend" data-z-index="7" transform="translate(188,356)"><rect fill="none" class="highcharts-legend-box" rx="0" ry="0" x="0" y="0" width="224" height="29" visibility="visible"></rect><g data-z-index="1"><g><g class="highcharts-legend-item highcharts-column-series highcharts-color-0 highcharts-series-0" data-z-index="1" transform="translate(8,3)"><text x="21" style="color:#333333;font-size:12px;font-weight:bold;cursor:pointer;fill:#333333;" text-anchor="start" data-z-index="2" y="15"><tspan>Consumption</tspan></text><rect x="2" y="4" width="12" height="12" fill="#c0504d" rx="6" ry="6" class="highcharts-point" data-z-index="3"></rect></g><g class="highcharts-legend-item highcharts-column-series highcharts-color-1 highcharts-series-1" data-z-index="1" transform="translate(130.171875,3)"><text x="21" y="15" style="color:#333333;font-size:12px;font-weight:bold;cursor:pointer;fill:#333333;" text-anchor="start" data-z-index="2"><tspan>Production</tspan></text><rect x="2" y="4" width="12" height="12" fill="#4f81bd" rx="6" ry="6" class="highcharts-point" data-z-index="3"></rect></g></g></g></g><g class="highcharts-axis-labels highcharts-xaxis-labels " data-z-index="7"><text x="75.375" style="color:#666666;cursor:default;font-size:11px;fill:#666666;" text-anchor="middle" transform="translate(0,0)" y="341" opacity="1">Jan</text><text x="120.125" style="color:#666666;cursor:default;font-size:11px;fill:#666666;" text-anchor="middle" transform="translate(0,0)" y="341" opacity="1">Feb</text><text x="164.875" style="color:#666666;cursor:default;font-size:11px;fill:#666666;" text-anchor="middle" transform="translate(0,0)" y="341" opacity="1">Mar</text><text x="209.625" style="color:#666666;cursor:default;font-size:11px;fill:#666666;" text-anchor="middle" transform="translate(0,0)" y="341" opacity="1">Apr</text><text x="254.375" style="color:#666666;cursor:default;font-size:11px;fill:#666666;" text-anchor="middle" transform="translate(0,0)" y="341" opacity="1">May</text><text x="299.125" style="color:#666666;cursor:default;font-size:11px;fill:#666666;" text-anchor="middle" transform="translate(0,0)" y="341" opacity="1">Jun</text><text x="343.875" style="color:#666666;cursor:default;font-size:11px;fill:#666666;" text-anchor="middle" transform="translate(0,0)" y="341" opacity="1">Jul</text><text x="388.625" style="color:#666666;cursor:default;font-size:11px;fill:#666666;" text-anchor="middle" transform="translate(0,0)" y="341" opacity="1">Aug</text><text x="433.375" style="color:#666666;cursor:default;font-size:11px;fill:#666666;" text-anchor="middle" transform="translate(0,0)" y="341" opacity="1">Sep</text><text x="478.125" style="color:#666666;cursor:default;font-size:11px;fill:#666666;" text-anchor="middle" transform="translate(0,0)" y="341" opacity="1">Oct</text><text x="522.875" style="color:#666666;cursor:default;font-size:11px;fill:#666666;" text-anchor="middle" transform="translate(0,0)" y="341" opacity="1">Nov</text><text x="567.625" style="color:#666666;cursor:default;font-size:11px;fill:#666666;" text-anchor="middle" transform="translate(0,0)" y="341" opacity="1">Dec</text></g><g class="highcharts-axis-labels highcharts-yaxis-labels " data-z-index="7"><text x="38" style="color:#666666;cursor:default;font-size:11px;fill:#666666;" text-anchor="end" transform="translate(0,0)" y="326" opacity="1">0</text><text x="38" style="color:#666666;cursor:default;font-size:11px;fill:#666666;" text-anchor="end" transform="translate(0,0)" y="299" opacity="1">200</text><text x="38" style="color:#666666;cursor:default;font-size:11px;fill:#666666;" text-anchor="end" transform="translate(0,0)" y="272" opacity="1">400</text><text x="38" style="color:#666666;cursor:default;font-size:11px;fill:#666666;" text-anchor="end" transform="translate(0,0)" y="245" opacity="1">600</text><text x="38" style="color:#666666;cursor:default;font-size:11px;fill:#666666;" text-anchor="end" transform="translate(0,0)" y="218" opacity="1">800</text><text x="38" style="color:#666666;cursor:default;font-size:11px;fill:#666666;" text-anchor="end" transform="translate(0,0)" y="192" opacity="1">1000</text><text x="38" style="color:#666666;cursor:default;font-size:11px;fill:#666666;" text-anchor="end" transform="translate(0,0)" y="165" opacity="1">1200</text><text x="38" style="color:#666666;cursor:default;font-size:11px;fill:#666666;" text-anchor="end" transform="translate(0,0)" y="138" opacity="1">1400</text><text x="38" style="color:#666666;cursor:default;font-size:11px;fill:#666666;" text-anchor="end" transform="translate(0,0)" y="111" opacity="1">1600</text><text x="38" style="color:#666666;cursor:default;font-size:11px;fill:#666666;" text-anchor="end" transform="translate(0,0)" y="84" opacity="1">1800</text><text x="38" style="color:#666666;cursor:default;font-size:11px;fill:#666666;" text-anchor="end" transform="translate(0,0)" y="57" opacity="1">2000</text></g><text x="590" class="highcharts-credits" text-anchor="end" data-z-index="8" style="cursor:pointer;color:#999999;font-size:9px;fill:#999999;" y="395">Highcharts.com</text></svg>