<?xml version="1.0" encoding="UTF-8"?>
<!DOCTYPE svg PUBLIC "-//W3C//DTD SVG 1.1//EN" "http://www.w3.org/Graphics/SVG/1.1/DTD/svg11.dtd">
<!-- Creator: CorelDRAW X7 -->
<svg xmlns="http://www.w3.org/2000/svg" xml:space="preserve" width="0.05in" height="0.05in" version="1.1" shape-rendering="geometricPrecision" text-rendering="geometricPrecision" image-rendering="optimizeQuality" fill-rule="evenodd" clip-rule="evenodd"
viewBox="0 0 50 50"
 xmlns:xlink="http://www.w3.org/1999/xlink">
 <g id="Layer_x0020_1">
  <metadata id="CorelCorpID_0Corel-Layer"/>
  <g id="_586653128">
   <path fill="white" d="M0 26l7 0 0 20 13 0 0 -15 10 0 0 15 13 0 0 -20 7 0c0,0 -5,-4 -6,-5 -1,-1 -4,-4 -5,-5l-4 -3c0,0 0,0 -1,-1 0,0 0,0 0,0l-2 -2c0,0 0,0 -1,-1l-4 -3c0,0 0,-1 0,-1 -1,0 -1,-1 -2,-1l-7 6c0,0 0,0 -1,1l-15 13c0,0 -2,2 -2,2z"/>
   <rect fill="none" width="50" height="50"/>
  </g>
 </g>
</svg>
