<?xml version="1.0" encoding="UTF-8"?>
<!DOCTYPE svg PUBLIC "-//W3C//DTD SVG 1.1//EN" "http://www.w3.org/Graphics/SVG/1.1/DTD/svg11.dtd">
<!-- Creator: CorelDRAW X7 -->
<svg xmlns="http://www.w3.org/2000/svg" xml:space="preserve" width="0.05in" height="0.05in" version="1.1" shape-rendering="geometricPrecision" text-rendering="geometricPrecision" image-rendering="optimizeQuality" fill-rule="evenodd" clip-rule="evenodd"
viewBox="0 0 50 50"
 xmlns:xlink="http://www.w3.org/1999/xlink">
 <g id="Layer_x0020_1">
  <metadata id="CorelCorpID_0Corel-Layer"/>
  <g id="_1006035832">
   <g>
    <path fill="white" fill-rule="nonzero" d="M24 2c2,-2 5,-3 7,-1 3,2 3,5 1,7l-12 16c-2,2 -5,2 -7,0 -3,-1 -3,-4 -1,-7l12 -15z"/>
    <path fill="white" fill-rule="nonzero" d="M32 16c2,-2 5,-3 7,-1 2,2 2,5 0,7l-21 26c-2,2 -5,3 -7,1 -2,-2 -2,-5 -1,-7l22 -26z"/>
    <path fill="white" fill-rule="nonzero" d="M35 14c3,0 5,2 6,5 0,2 -2,5 -5,5l-20 2c-3,0 -5,-2 -5,-5 -1,-3 2,-5 4,-5l20 -2z"/>
   </g>
   <rect fill="none" width="50" height="50"/>
  </g>
 </g>
</svg>
