<?xml version="1.0" encoding="UTF-8"?>
<!DOCTYPE svg PUBLIC "-//W3C//DTD SVG 1.1//EN" "http://www.w3.org/Graphics/SVG/1.1/DTD/svg11.dtd">
<!-- Creator: CorelDRAW X7 -->
<svg xmlns="http://www.w3.org/2000/svg" xml:space="preserve" width="0.05in" height="0.050811in" version="1.1" shape-rendering="geometricPrecision" text-rendering="geometricPrecision" image-rendering="optimizeQuality" fill-rule="evenodd" clip-rule="evenodd"
viewBox="0 0 50 51"
 xmlns:xlink="http://www.w3.org/1999/xlink">
 <g id="Layer_x0020_1">
  <metadata id="CorelCorpID_0Corel-Layer"/>
  <path fill="white" d="M31 27l14 0c3,0 5,2 5,5l0 14c0,3 -2,5 -5,5l-14 0c-2,0 -5,-2 -5,-5l0 -14c0,-3 3,-5 5,-5zm0 -27l14 0c3,0 5,2 5,5l0 14c0,2 -2,5 -5,5l-14 0c-2,0 -5,-3 -5,-5l0 -14c0,-3 3,-5 5,-5zm-26 0l14 0c2,0 5,2 5,5l0 14c0,2 -3,5 -5,5l-14 0c-3,0 -5,-3 -5,-5l0 -14c0,-3 2,-5 5,-5zm0 27l14 0c2,0 5,2 5,5l0 14c0,3 -3,5 -5,5l-14 0c-3,0 -5,-2 -5,-5l0 -14c0,-3 2,-5 5,-5z"/>
 </g>
</svg>
