<?xml version="1.0" encoding="UTF-8"?>
<!DOCTYPE svg PUBLIC "-//W3C//DTD SVG 1.1//EN" "http://www.w3.org/Graphics/SVG/1.1/DTD/svg11.dtd">
<!-- Creator: CorelDRAW X7 -->
<svg xmlns="http://www.w3.org/2000/svg" xml:space="preserve" width="0.520835in" height="0.520835in" version="1.1" shape-rendering="geometricPrecision" text-rendering="geometricPrecision" image-rendering="optimizeQuality" fill-rule="evenodd" clip-rule="evenodd"
viewBox="0 0 521 521"
 xmlns:xlink="http://www.w3.org/1999/xlink">
 <g id="Layer_x0020_1">
  <metadata id="CorelCorpID_0Corel-Layer"/>
  <circle fill="#4F4F4F" cx="260" cy="260" r="260"/>
  <path fill="white" d="M172 266l159 0 -25 24c-2,2 -2,5 0,7 2,2 6,2 8,0l33 -33c2,-2 2,-5 0,-7l-33 -33c-2,-2 -6,-2 -8,0 -2,2 -2,5 0,7l25 24 -159 0 0 11z"/>
  <path fill="white" d="M263 255c-3,0 -5,3 -5,5 0,3 2,6 5,6l0 -11z"/>
 </g>
</svg>
