<?xml version="1.0" encoding="UTF-8"?>
<!DOCTYPE svg PUBLIC "-//W3C//DTD SVG 1.1//EN" "http://www.w3.org/Graphics/SVG/1.1/DTD/svg11.dtd">
<!-- Creator: CorelDRAW X7 -->
<svg xmlns="http://www.w3.org/2000/svg" xml:space="preserve" width="0.166669in" height="0.166669in" version="1.1" style="shape-rendering:geometricPrecision; text-rendering:geometricPrecision; image-rendering:optimizeQuality; fill-rule:evenodd; clip-rule:evenodd"
viewBox="0 0 167 167"
 xmlns:xlink="http://www.w3.org/1999/xlink"
 enable-background="new 0 0 139 139">
 <defs>
  <style type="text/css">
   <![CDATA[
    .fil0 {fill:#0091CF}
    .fil1 {fill:white}
   ]]>
  </style>
 </defs>
 <g id="Layer_x0020_1">
  <metadata id="CorelCorpID_0Corel-Layer"/>
  <path class="fil0" d="M167 151c0,9 -7,16 -16,16l-135 0c-9,0 -16,-7 -16,-16l0 -135c0,-9 7,-16 16,-16l135 0c9,0 16,7 16,16l0 135z"/>
  <g id="if_Trash01_928426.svg">
   <path class="fil1" d="M128 43l0 -1c0,-10 -6,-18 -14,-18l-62 0c-7,0 -13,8 -13,18l0 1 89 0z"/>
   <path class="fil1" d="M128 58c-1,-2 -3,-3 -6,-3l-78 0c-2,0 -4,1 -6,3 -1,2 -2,4 -1,6l11 72c1,4 4,6 8,6l55 0c4,0 7,-2 8,-6l11 -72c0,-2 0,-4 -2,-6zm-67 74c0,0 0,0 0,0 -2,0 -4,-2 -4,-4l-5 -54c0,-2 1,-5 4,-5 2,0 5,2 5,4l4 54c1,2 -1,4 -4,5zm27 -5c0,3 -2,5 -5,5 -2,0 -4,-2 -4,-5l0 -54c0,-2 2,-4 4,-4 3,0 5,2 5,4l0 54zm22 1c-1,2 -3,4 -5,4 0,0 0,0 0,0 -3,-1 -5,-3 -4,-5l4 -54c1,-2 3,-4 5,-4 3,0 4,3 4,5l-4 54z"/>
  </g>
 </g>
</svg>
